<svg width="48" height="48" viewBox="0 0 48 48" fill="none" xmlns="http://www.w3.org/2000/svg">
<g filter="url(#filter0_b_127_676)">
<rect width="48" height="48" rx="24" fill="black" fill-opacity="0.41"/>
<path d="M17.75 34V23.0625C17.75 22.1836 17.0176 21.5 16.1875 21.5H13.0625C12.1836 21.5 11.5 22.2324 11.5 23.0625V33.9512C11.5 34.7813 12.1836 35.4648 13.0625 35.4648H16.1875C17.0176 35.5625 17.75 34.8789 17.75 34ZM36.5 23.1113C36.5 21.793 35.4258 20.7676 34.1563 20.7676H26.9785C28.1016 18.9121 28.6875 16.8125 28.6875 16.0801C28.6875 14.9082 27.7598 13.6875 26.2461 13.6875C23.1699 13.6875 24.9766 17.4473 20.9727 20.6211L20.1914 21.2559C19.6055 21.7441 19.3125 22.3789 19.3125 23.0625C19.3125 23.1113 19.3125 23.0625 19.3125 23.0625V30.875C19.3125 31.6562 19.6543 32.3398 20.2402 32.7793L21.9004 34C23.2676 35.0254 24.8789 35.5625 26.5879 35.5625H29.4688C30.7383 35.5625 31.8125 34.5371 31.8125 33.2676C31.8125 33.0723 31.7637 32.877 31.7148 32.7305C32.6914 32.4375 33.375 31.5586 33.375 30.4844C33.375 30.0449 33.2285 29.6543 32.9844 29.3125C34.1074 29.0684 34.9375 28.1406 34.9375 27.0176C34.9375 26.3828 34.6934 25.8457 34.3027 25.4062C35.5234 25.3574 36.5 24.332 36.5 23.1113Z" fill="#0BF0C7"/>
</g>
<defs>
<filter id="filter0_b_127_676" x="-4" y="-4" width="56" height="56" filterUnits="userSpaceOnUse" color-interpolation-filters="sRGB">
<feFlood flood-opacity="0" result="BackgroundImageFix"/>
<feGaussianBlur in="BackgroundImageFix" stdDeviation="2"/>
<feComposite in2="SourceAlpha" operator="in" result="effect1_backgroundBlur_127_676"/>
<feBlend mode="normal" in="SourceGraphic" in2="effect1_backgroundBlur_127_676" result="shape"/>
</filter>
</defs>
</svg>
