<svg width="59" height="59" viewBox="0 0 59 59" fill="none" xmlns="http://www.w3.org/2000/svg">
<g filter="url(#filter0_b_127_687)">
<rect width="59" height="59" rx="29.5" fill="black" fill-opacity="0.41"/>
<path d="M41.0295 17.2878C34.5055 14.2104 27.1979 13.3873 20.1119 14.969C18.2164 15.3722 16.755 17.0287 16.5249 19.035L15.1265 31.9275C14.3786 38.1633 22.7276 45.3949 27.2407 45.8949C31.6828 46.3994 41.4612 41.2345 42.2047 34.9278L43.6075 22.1062C43.8376 20.0999 42.8631 18.169 41.0295 17.2878ZM22.1147 25.3722C22.305 23.8663 23.7265 22.7103 25.2323 22.9006C26.809 23.0865 27.9606 24.4371 27.7748 26.0138C27.7216 26.3017 27.6685 26.5896 27.5445 26.8819C26.8669 26.2841 25.9855 25.8413 24.9093 25.6952C23.9084 25.6156 22.9252 25.8194 22.1679 26.2225C22.0793 25.9435 22.0615 25.66 22.1147 25.3722ZM27.9575 39.163C23.945 38.7028 21.0349 35.3991 21.1542 31.6213C22.6867 33.375 25.3264 34.6326 28.4089 35.0087C31.487 35.314 34.3612 34.6362 36.2699 33.3073C35.5749 36.9789 31.9701 39.6233 27.9575 39.163ZM36.5706 27.882C35.9638 27.2797 35.0116 26.8414 34.0062 26.6909C32.9344 26.6157 31.9512 26.8195 31.1984 27.2935C31.1806 27.01 31.092 26.731 31.1407 26.3723C31.331 24.8664 32.7526 23.7104 34.3293 23.8962C35.8351 24.0866 36.9911 25.5081 36.8008 27.0139C36.7477 27.3018 36.6946 27.5897 36.5706 27.882Z" fill="#64D0FF"/>
</g>
<defs>
<filter id="filter0_b_127_687" x="-4" y="-4" width="67" height="67" filterUnits="userSpaceOnUse" color-interpolation-filters="sRGB">
<feFlood flood-opacity="0" result="BackgroundImageFix"/>
<feGaussianBlur in="BackgroundImageFix" stdDeviation="2"/>
<feComposite in2="SourceAlpha" operator="in" result="effect1_backgroundBlur_127_687"/>
<feBlend mode="normal" in="SourceGraphic" in2="effect1_backgroundBlur_127_687" result="shape"/>
</filter>
</defs>
</svg>
