<svg width="49" height="48" viewBox="0 0 49 48" fill="none" xmlns="http://www.w3.org/2000/svg">
<g filter="url(#filter0_b_142_614)">
<rect x="0.174194" width="48" height="48" rx="24" fill="#F3F4F5" fill-opacity="0.8"/>
<path d="M27.7875 23.9902L22.5629 22.3789C21.9281 22.1836 21.2933 22.5254 21.098 23.1113C20.9027 23.7461 21.2445 24.3809 21.8304 24.5762L24.1742 25.4062H14.4086C13.8715 25.4062 13.3343 25.7969 13.2367 26.3828C13.0902 27.1152 13.6761 27.75 14.4086 27.75H20.6586C20.8539 27.75 21.0492 27.9453 21.0492 28.1406C21.0492 28.3848 20.8539 28.5312 20.6586 28.5312H12.8461C12.309 28.5312 11.7718 28.9219 11.6742 29.5078C11.5277 30.2402 12.1136 30.875 12.8461 30.875H20.6586C20.8539 30.875 21.0492 31.0703 21.0492 31.2656C21.0492 31.5098 20.8539 31.6562 20.6586 31.6562H14.4086C13.8715 31.6562 13.3343 32.0469 13.2367 32.6328C13.0902 33.3652 13.6761 34 14.4086 34H20.6586C20.8539 34 21.0492 34.1953 21.0492 34.3906C21.0492 34.6348 20.8539 34.7813 20.6586 34.7813H15.9711C15.434 34.7813 14.8968 35.1719 14.7992 35.7578C14.6527 36.4902 15.2386 37.125 15.9711 37.125H26.1273C29.35 37.125 31.9867 34.5371 31.9867 31.2656V29.7031C31.9867 27.1152 30.2777 24.8203 27.7875 23.9902ZM21.2933 20.9141C21.5863 20.8164 21.8793 20.7676 22.2211 20.7676C22.4652 20.7676 22.7582 20.7676 23.0023 20.8652L23.7836 21.1094L22.7582 17.8867C22.6117 17.3496 22.0746 16.959 21.5375 17.0078C20.7562 17.1055 20.3168 17.8379 20.5121 18.5215L21.2933 20.9141ZM35.4535 19.2051C34.7699 19.2051 34.2816 19.7422 34.2816 20.377L34.184 22.8184L31.2543 13.541C31.059 13.0039 30.5219 12.6621 29.9847 12.7109C29.2035 12.8086 28.764 13.541 29.0082 14.2246L30.8636 20.1816C30.9613 20.377 30.8148 20.6211 30.6195 20.6699C30.4242 20.7187 30.1801 20.6211 30.1312 20.4258L27.7875 13.0039C27.641 12.4668 27.1039 12.0762 26.5179 12.1738C25.7855 12.2715 25.3461 13.0039 25.5414 13.6875L27.641 20.4258C27.7386 20.6211 27.5922 20.8164 27.3969 20.9141C27.2015 20.9629 26.9574 20.8652 26.9086 20.6211L25.2972 15.4453C25.1019 14.9082 24.5648 14.5176 24.0277 14.5664C23.2465 14.6641 22.807 15.3965 23.0511 16.1289L24.7113 21.4023L28.2758 22.4766C31.4008 23.5508 33.5492 26.4316 33.5492 29.7031V31.0703C35.4047 30.0449 36.6254 28.0918 36.6742 25.8945V20.377C36.6254 19.7422 36.0883 19.2051 35.4535 19.2051Z" fill="#1072F8"/>
</g>
<defs>
<filter id="filter0_b_142_614" x="-3.82581" y="-4" width="56" height="56" filterUnits="userSpaceOnUse" color-interpolation-filters="sRGB">
<feFlood flood-opacity="0" result="BackgroundImageFix"/>
<feGaussianBlur in="BackgroundImageFix" stdDeviation="2"/>
<feComposite in2="SourceAlpha" operator="in" result="effect1_backgroundBlur_142_614"/>
<feBlend mode="normal" in="SourceGraphic" in2="effect1_backgroundBlur_142_614" result="shape"/>
</filter>
</defs>
</svg>
