<svg width="48" height="48" viewBox="0 0 48 48" fill="none" xmlns="http://www.w3.org/2000/svg">
<g filter="url(#filter0_b_127_680)">
<rect width="48" height="48" rx="24" fill="#F3F4F5" fill-opacity="0.8"/>
<path d="M11.5 21.4512V21.207C11.5 17.7891 13.9414 14.8594 17.3105 14.3223C19.5078 13.9316 21.8027 14.6641 23.4141 16.2754L24 16.8125L24.5371 16.2754C26.1484 14.6641 28.4434 13.9316 30.6406 14.3223C34.0098 14.8594 36.5 17.7891 36.5 21.207V21.4512C36.5 23.502 35.6211 25.4551 34.1563 26.8223L25.3184 35.0742C24.9766 35.416 24.4883 35.5625 24 35.5625C23.4629 35.5625 22.9746 35.416 22.6328 35.0742L13.7949 26.8223C12.3301 25.4551 11.5 23.502 11.5 21.4512Z" fill="#FF5C60"/>
</g>
<defs>
<filter id="filter0_b_127_680" x="-4" y="-4" width="56" height="56" filterUnits="userSpaceOnUse" color-interpolation-filters="sRGB">
<feFlood flood-opacity="0" result="BackgroundImageFix"/>
<feGaussianBlur in="BackgroundImageFix" stdDeviation="2"/>
<feComposite in2="SourceAlpha" operator="in" result="effect1_backgroundBlur_127_680"/>
<feBlend mode="normal" in="SourceGraphic" in2="effect1_backgroundBlur_127_680" result="shape"/>
</filter>
</defs>
</svg>
